<svg width="125" height="125" viewBox="0 0 125 125" fill="none" xmlns="http://www.w3.org/2000/svg">
    <mask id="mask0_46_598" style="mask-type:alpha" maskUnits="userSpaceOnUse" x="0" y="0" width="125" height="125">
        <circle cx="62.5" cy="62.5" r="62.5" fill="#C4C4C4"/>
    </mask>
    <g mask="url(#mask0_46_598)">
        <circle cx="62.5" cy="62.5" r="62.5" fill="white"/>
        <rect x="25" y="25" width="75" height="75" rx="4" fill="black"/>
        <path d="M48.8478 87H39.5038V54.552H48.8478V87ZM48.0158 41.304C49.0824 42.3707 49.6158 43.6507 49.6158 45.144C49.6158 46.6373 49.0824 47.9173 48.0158 48.984C46.9491 50.0507 45.6691 50.584 44.1758 50.584C42.6824 50.584 41.4024 50.0507 40.3358 48.984C39.2691 47.9173 38.7358 46.6373 38.7358 45.144C38.7358 43.6507 39.2691 42.3707 40.3358 41.304C41.4024 40.2373 42.6824 39.704 44.1758 39.704C45.6691 39.704 46.9491 40.2373 48.0158 41.304ZM86.6313 87H77.2873V67.672C77.2873 65.752 76.8393 64.3013 75.9433 63.32C75.0473 62.296 73.7886 61.784 72.1673 61.784C70.4606 61.784 69.0313 62.4667 67.8793 63.832C66.7699 65.1547 66.2153 67.16 66.2153 69.848V87H56.8713V54.552H66.2153V60.056C67.0259 58.264 68.2633 56.856 69.9272 55.832C71.6339 54.7653 73.6606 54.232 76.0073 54.232C79.3353 54.232 81.9379 55.2347 83.8153 57.24C85.6926 59.2027 86.6313 62.104 86.6313 65.944V87Z"
              fill="white"/>
    </g>
</svg>
